<?xml version="1.0" standalone="no"?>
<!DOCTYPE svg PUBLIC "-//W3C//DTD SVG 20010904//EN"
 "http://www.w3.org/TR/2001/REC-SVG-20010904/DTD/svg10.dtd">
<svg version="1.0" xmlns="http://www.w3.org/2000/svg"
 width="418.000000pt" height="418.000000pt" viewBox="0 0 418.000000 418.000000"
 preserveAspectRatio="xMidYMid meet">
<metadata>
Created by potrace 1.11, written by Peter Selinger 2001-2013
</metadata>
<g transform="translate(0.000000,418.000000) scale(0.100000,-0.100000)"
fill="#000000" stroke="none">
<path d="M1939 4176 c-2 -2 -35 -6 -74 -10 -77 -6 -113 -12 -250 -41 -46 -9
-219 -61 -250 -75 -11 -5 -49 -21 -85 -36 -277 -113 -562 -317 -753 -538 -72
-84 -118 -142 -131 -165 -5 -9 -12 -18 -15 -21 -16 -14 -91 -137 -142 -235
-122 -232 -186 -438 -223 -715 -13 -94 -14 -437 -1 -510 30 -175 53 -275 91
-390 100 -306 265 -577 490 -806 176 -179 326 -290 546 -403 154 -79 286 -128
460 -171 126 -31 146 -34 258 -47 123 -14 499 -6 551 11 8 3 31 8 53 11 132
19 364 94 525 170 639 303 1087 926 1176 1635 11 89 14 368 4 460 -42 387
-189 756 -427 1070 -71 92 -254 278 -348 352 -116 92 -251 176 -389 243 -114
56 -293 125 -358 140 -12 2 -60 13 -107 24 -81 19 -129 28 -195 37 -39 5 -402
14 -406 10z"/>
</g>
</svg>
